<?xml version="1.0" encoding="utf-8"?>
<!-- Generated by IcoMoon.io -->
<svg version="1.1" xmlns="http://www.w3.org/2000/svg" xmlns:xlink="http://www.w3.org/1999/xlink" width="752" height="80" viewBox="0 0 752 80">
<svg id="icon-feedback-arrow1-icon" width="32" height="32" viewBox="0 0 32 32" x="0" y="0">
<path fill="#ff6b09" d="M30.815 14.815c0.655 0 1.185 0.531 1.185 1.185s-0.531 1.185-1.185 1.185v-2.37zM0.347 16.838c-0.463-0.463-0.463-1.213 0-1.676l7.542-7.542c0.463-0.463 1.213-0.463 1.676 0s0.463 1.213 0 1.676l-6.704 6.704 6.704 6.704c0.463 0.463 0.463 1.213 0 1.676s-1.213 0.463-1.676 0l-7.542-7.543zM30.815 17.185h-29.63v-2.37h29.63v2.37z"></path>
</svg>
<svg id="icon-feedback-arrow2-icon" width="32" height="32" viewBox="0 0 32 32" x="48" y="0">
<path fill="#ff6b09" d="M1.185 14.815c-0.655 0-1.185 0.531-1.185 1.185s0.531 1.185 1.185 1.185v-2.37zM31.653 16.838c0.463-0.463 0.463-1.213 0-1.676l-7.543-7.542c-0.463-0.463-1.213-0.463-1.676 0s-0.463 1.213 0 1.676l6.704 6.704-6.704 6.704c-0.463 0.463-0.463 1.213 0 1.676s1.213 0.463 1.676 0l7.543-7.543zM1.185 17.185h29.63v-2.37h-29.63v2.37z"></path>
</svg>
<svg id="icon-feedback-facebook-icon" width="32" height="32" viewBox="0 0 32 32" x="96" y="0">
<path fill="#436eab" d="M28.166 0.549h-24.332c-0.88 0-1.724 0.347-2.346 0.963s-0.972 1.453-0.972 2.326v24.12c0 0.872 0.35 1.709 0.972 2.326s1.466 0.963 2.346 0.963h9.487v-10.437h-4.355v-4.912h4.355v-3.744c0-4.259 2.558-6.611 6.475-6.611 1.876 0 3.838 0.332 3.838 0.332v4.18h-2.161c-2.13 0-2.794 1.31-2.794 2.654v3.19h4.754l-0.76 4.912h-3.994v10.437h9.487c0.88 0 1.724-0.347 2.346-0.963s0.972-1.453 0.972-2.326v-24.12c0-0.872-0.35-1.709-0.972-2.326s-1.466-0.963-2.346-0.963z"></path>
</svg>
<svg id="icon-footer-phone-icon" width="32" height="32" viewBox="0 0 32 32" x="144" y="0">
<path fill="#ff6b09" d="M4.657 0.003c-0.515 0.025-1.021 0.253-1.392 0.678l-2.595 2.969c0.004-0.009-0.010-0.008-0.084 0.101-0.039 0.056-0.070 0.118-0.090 0.184-1.056 3.502-0.348 7.354 1.376 11.018s4.475 7.17 7.633 10.047c3.158 2.877 6.721 5.128 10.119 6.244s6.692 1.102 9.133-0.742c0.027-0.020 0.052-0.043 0.075-0.068 0.064-0.067 0.066-0.075 0.056-0.065l0.010-0.013 2.582-2.956c0.742-0.849 0.682-2.184-0.134-2.956l-6.126-5.799c-0.816-0.772-2.098-0.711-2.84 0.138l-2.772 3.173c-2.25-0.678-4.173-1.828-6.023-3.58s-3.132-3.637-3.993-5.905l2.771-3.173c0.742-0.849 0.683-2.184-0.133-2.956l-6.126-5.8c-0.408-0.386-0.933-0.564-1.448-0.539l-0.001 0zM4.715 1.304c0.19-0.009 0.383 0.060 0.541 0.209l6.126 5.8c0.316 0.299 0.337 0.776 0.050 1.104l-3.063 3.504c-0.077 0.089-0.129 0.197-0.151 0.314s-0.013 0.239 0.027 0.351c0.93 2.641 2.429 4.807 4.493 6.761s4.275 3.304 6.889 4.018c0.111 0.030 0.228 0.028 0.339-0.005s0.21-0.099 0.287-0.188l3.064-3.505c0.287-0.328 0.744-0.35 1.060-0.051l6.127 5.8c0.316 0.299 0.336 0.775 0.049 1.103l-2.561 2.93c-2.003 1.497-4.826 1.581-7.986 0.542-3.173-1.043-6.617-3.202-9.666-5.98s-5.702-6.169-7.332-9.633c-1.614-3.429-2.199-6.895-1.312-9.95l2.502-2.862c0.143-0.164 0.33-0.252 0.52-0.261l0 0z"></path>
</svg>
<svg id="icon-hero-female-studenticon" width="32" height="32" viewBox="0 0 32 32" x="192" y="0">
<path fill="#ff6b09" d="M2.724 31.033c3.441 0 23.348 0 26.785 0 0.133-3.055-0.086-8.122-1.964-10.535l-0.068-0.087-4.104-2.061c0.089-0.301 0.133-0.576 0.151-0.778 0.020-0.243-0.013-0.471-0.1-0.678-0.677-1.62-2.11-2.472-2.898-2.836 0.24-0.484 0.395-1.003 0.47-1.534 0.446-0.126 0.805-0.479 0.923-0.951l0.479-1.946c0.085-0.343 0.032-0.699-0.151-1.002-0.078-0.131-0.18-0.24-0.294-0.334 1.351-3.068-0.911-5.96-1.035-6.113-2.45-2.649-5.544-2.153-5.708-2.124-4.466 0.935-6.19 4.358-5.217 8.372-0.288 0.319-0.409 0.764-0.302 1.2l0.481 1.948c0.117 0.468 0.473 0.82 0.916 0.948 0.137 0.972 0.548 1.851 1.152 2.559v1.543c-6.409 3.282-2.348 1.188-7.484 3.786-0.010 0.048-2.41 2.599-2.053 10.159l0.022 0.462zM28.579 30.063h-4.408v-1.852l2.916-6.674c1.461 2.424 1.515 7.053 1.493 8.526zM22.562 17.49c-0.17 1.954-1.242 1.364-1.903 2.869-0.52-0.572-0.677-1.258-0.537-1.993 0.253-1.348-0.57-1.749-0.367-3.166l0.031-0.032v-0.005c0.017-0.020 0.18-0.213 0.227-0.274 1.744 0.76 2.584 2.174 2.55 2.6zM13.206 15.954c0.81 0.562 1.787 0.893 2.838 0.893 0.99 0 1.93-0.288 2.737-0.819 0.112 1.114 0.547 1.337 0.393 2.157-0.029 0.152-0.045 0.302-0.054 0.45l-3.002 3.384-3.838-4.327 0.926-0.484v-1.254zM11.999 11.813v-1.876c0-0.691 0-3.431 0-3.296 0.467-0.864 1.104-1.491 1.896-1.866 2.12 1.2 4.56 2.99 6.197 4.791-0.002 2.294 0.006 2.301-0.009 2.489l-0.001 0.012c-0.128 2.084-1.841 3.811-4.038 3.811-2.136 0-3.909-1.677-4.037-3.831-0.007-0.077-0.008-0.155-0.008-0.233zM11.401 18.16l4.716 5.317 3.166-3.569c0.072 0.208 0.174 0.405 0.29 0.595l-3.456 4.322-5.154-6.446 0.438-0.22zM21.057 11.033v-1.498c0.042-0.049 0.402-0.461 0.36-0.413 0.020 0.758 0.102-0.137-0.36 1.911zM15.389 1.008c0.192 0.012 2.765-0.391 4.799 1.804 0.080 0.1 1.736 2.234 1.071 4.567-0.228-1.038-0.625-2.369-1.252-3.004l-0.686 0.683c0.619 0.627 1.026 2.537 1.181 3.527-2.84-2.972-6.504-4.853-6.555-4.885-0.184 0.114-1.734 0.409-2.86 2.598l-0.054 0.105v1.607c-0.048 0.001-0.19 0.002-0.142 0.002-0.715-3.454 0.655-6.198 4.497-7.004zM10.79 9.009l0.244 0.987v1.038l-0.405-1.639c-0.059-0.244 0.122-0.337 0.161-0.386zM10.080 18.824l6.037 7.551 4.085-5.109c0.444 0.398 0.658 0.454 1.6 0.939l-0.318-1.078c-0.081-0.274 0.239-0.713 0.431-0.914 0.43-0.233 0.789-0.566 1.058-0.978l3.333 1.674-3.101 7.1v2.055h-14.176v-2.055l-3.103-7.099 4.153-2.085zM5.147 21.539l2.916 6.673v1.852h-4.408c-0.022-1.473 0.033-6.099 1.492-8.524z"></path>
</svg>
<svg id="icon-hero-fem-student-frameicon" width="32" height="32" viewBox="0 0 32 32" x="240" y="0">
<path fill="#ff6b09" d="M9.753 23.074c1.619 0 10.987 0 12.605 0 0.062-1.437-0.041-3.822-0.924-4.957l-0.032-0.041-1.931-0.97c0.042-0.141 0.063-0.271 0.071-0.366 0.010-0.114-0.006-0.222-0.047-0.319-0.319-0.762-0.993-1.163-1.364-1.335 0.113-0.228 0.186-0.472 0.221-0.722 0.21-0.059 0.379-0.225 0.434-0.447l0.225-0.916c0.040-0.162 0.015-0.329-0.071-0.472-0.037-0.061-0.085-0.113-0.138-0.157 0.636-1.444-0.429-2.805-0.487-2.877-1.153-1.246-2.609-1.013-2.686-1-2.102 0.44-2.913 2.051-2.455 3.94-0.136 0.15-0.193 0.36-0.142 0.565l0.227 0.917c0.055 0.22 0.222 0.386 0.431 0.446 0.064 0.457 0.258 0.871 0.542 1.204v0.726c-3.016 1.544-1.105 0.559-3.522 1.782-0.005 0.023-1.134 1.223-0.966 4.781l0.010 0.217zM21.919 22.618h-2.074v-0.871l1.372-3.141c0.687 1.141 0.713 3.319 0.702 4.012zM19.088 16.701c-0.080 0.92-0.584 0.642-0.896 1.35-0.245-0.269-0.319-0.592-0.253-0.938 0.119-0.635-0.268-0.823-0.173-1.49l0.015-0.015v-0.002c0.008-0.009 0.085-0.1 0.107-0.129 0.821 0.358 1.216 1.023 1.2 1.224zM14.685 15.978c0.381 0.264 0.841 0.42 1.336 0.42 0.466 0 0.908-0.136 1.288-0.385 0.053 0.524 0.257 0.629 0.185 1.015-0.014 0.072-0.021 0.142-0.025 0.212l-1.413 1.592-1.806-2.036 0.436-0.228v-0.59zM14.117 14.030v-0.883c0-0.325 0-1.615 0-1.551 0.22-0.407 0.52-0.702 0.892-0.878 0.998 0.565 2.146 1.407 2.916 2.255-0.001 1.080 0.003 1.083-0.004 1.171l-0 0.006c-0.060 0.98-0.866 1.793-1.9 1.793-1.005 0-1.839-0.789-1.9-1.803-0.003-0.036-0.004-0.073-0.004-0.11zM13.836 17.017l2.219 2.502 1.49-1.679c0.034 0.098 0.082 0.191 0.136 0.28l-1.626 2.034-2.425-3.033 0.206-0.103zM18.38 13.663v-0.705c0.020-0.023 0.189-0.217 0.169-0.194 0.009 0.357 0.048-0.064-0.169 0.899zM15.712 8.945c0.090 0.006 1.301-0.184 2.258 0.849 0.038 0.047 0.817 1.051 0.504 2.149-0.107-0.489-0.294-1.115-0.589-1.414l-0.323 0.321c0.291 0.295 0.483 1.194 0.556 1.66-1.337-1.399-3.061-2.284-3.085-2.299-0.086 0.054-0.816 0.193-1.346 1.223l-0.025 0.049v0.756c-0.023 0-0.090 0.001-0.067 0.001-0.337-1.626 0.308-2.917 2.116-3.296zM13.548 12.71l0.115 0.465v0.488l-0.191-0.771c-0.028-0.115 0.057-0.159 0.076-0.181zM13.214 17.329l2.841 3.553 1.922-2.404c0.209 0.187 0.31 0.214 0.753 0.442l-0.15-0.507c-0.038-0.129 0.112-0.335 0.203-0.43 0.203-0.11 0.371-0.267 0.498-0.46l1.568 0.788-1.459 3.341v0.967h-6.671v-0.967l-1.46-3.341 1.954-0.981zM10.893 18.606l1.372 3.14v0.871h-2.074c-0.010-0.693 0.015-2.87 0.702-4.011z"></path>
<path fill="none" stroke="#ff6b09" stroke-linejoin="miter" stroke-linecap="butt" stroke-miterlimit="4" stroke-width="0.6275" d="M31.686 4.62v-4.306h-31.373v31.373h31.373v-4.306"></path>
</svg>
<svg id="icon-hero-helloenicon" width="32" height="32" viewBox="0 0 32 32" x="288" y="0">
<path fill="#111518" d="M4.784 12.075v4.55h-1.287v-1.774h-1.755v1.774h-1.287v-4.55h1.287v1.71h1.755v-1.71h1.287zM9.494 14.87c0 0.009-0.007 0.111-0.020 0.306h-2.561c0.052 0.182 0.152 0.323 0.299 0.422 0.152 0.095 0.34 0.143 0.566 0.143 0.169 0 0.314-0.024 0.436-0.072 0.126-0.048 0.251-0.126 0.377-0.234l0.65 0.676c-0.342 0.381-0.843 0.572-1.502 0.572-0.412 0-0.774-0.078-1.085-0.234s-0.555-0.373-0.728-0.65c-0.169-0.277-0.253-0.591-0.253-0.943 0-0.347 0.082-0.656 0.247-0.93 0.169-0.277 0.401-0.494 0.696-0.65s0.626-0.234 0.995-0.234c0.351 0 0.669 0.074 0.956 0.221 0.286 0.143 0.511 0.353 0.676 0.63 0.169 0.273 0.254 0.598 0.254 0.975zM7.616 13.921c-0.191 0-0.351 0.054-0.481 0.162-0.126 0.108-0.206 0.256-0.24 0.442h1.443c-0.035-0.186-0.117-0.334-0.247-0.442-0.126-0.108-0.284-0.162-0.474-0.162zM10.324 11.802h1.235v4.823h-1.235v-4.823zM12.621 11.802h1.235v4.823h-1.235v-4.823z"></path>
<path fill="#ff6b09" d="M1.95 19.725v1.4h-0.324v-0.574h-0.636v0.574h-0.324v-1.4h0.324v0.552h0.636v-0.552h0.324zM3.725 20.865v0.26h-1.084v-1.4h1.058v0.26h-0.736v0.304h0.65v0.252h-0.65v0.324h0.762zM4.343 19.725h0.324v1.136h0.702v0.264h-1.026v-1.4zM5.91 19.725h0.324v1.136h0.702v0.264h-1.026v-1.4zM7.477 19.725h0.324v1.4h-0.324v-1.4zM8.953 21.149c-0.111 0-0.218-0.015-0.322-0.044-0.103-0.031-0.185-0.070-0.248-0.118l0.11-0.244c0.060 0.044 0.131 0.079 0.214 0.106s0.165 0.040 0.248 0.040c0.092 0 0.16-0.013 0.204-0.040 0.044-0.028 0.066-0.065 0.066-0.11 0-0.033-0.013-0.061-0.040-0.082-0.025-0.023-0.059-0.041-0.1-0.054-0.040-0.013-0.095-0.028-0.164-0.044-0.107-0.025-0.194-0.051-0.262-0.076s-0.127-0.066-0.176-0.122c-0.048-0.056-0.072-0.131-0.072-0.224 0-0.081 0.022-0.155 0.066-0.22 0.044-0.067 0.11-0.119 0.198-0.158 0.089-0.039 0.198-0.058 0.326-0.058 0.089 0 0.177 0.011 0.262 0.032s0.16 0.052 0.224 0.092l-0.1 0.246c-0.129-0.073-0.259-0.11-0.388-0.11-0.091 0-0.158 0.015-0.202 0.044-0.043 0.029-0.064 0.068-0.064 0.116s0.025 0.084 0.074 0.108c0.051 0.023 0.127 0.045 0.23 0.068 0.107 0.025 0.194 0.051 0.262 0.076s0.126 0.065 0.174 0.12c0.049 0.055 0.074 0.129 0.074 0.222 0 0.080-0.023 0.153-0.068 0.22-0.044 0.065-0.111 0.117-0.2 0.156s-0.198 0.058-0.326 0.058zM11.413 19.725v1.4h-0.324v-0.574h-0.636v0.574h-0.324v-1.4h0.324v0.552h0.636v-0.552h0.324z"></path>
<path fill="#111518" d="M14.114 20.865v0.26h-1.084v-1.4h1.058v0.26h-0.736v0.304h0.65v0.252h-0.65v0.324h0.762zM16.016 19.725v1.4h-0.266l-0.698-0.85v0.85h-0.32v-1.4h0.268l0.696 0.85v-0.85h0.32zM17.653 20.403h0.296v0.568c-0.076 0.057-0.164 0.101-0.264 0.132s-0.201 0.046-0.302 0.046c-0.145 0-0.276-0.031-0.392-0.092-0.116-0.063-0.207-0.149-0.274-0.258-0.065-0.111-0.098-0.235-0.098-0.374s0.033-0.263 0.098-0.372c0.067-0.111 0.159-0.197 0.276-0.258 0.117-0.063 0.249-0.094 0.396-0.094 0.123 0 0.234 0.021 0.334 0.062s0.184 0.101 0.252 0.18l-0.208 0.192c-0.1-0.105-0.221-0.158-0.362-0.158-0.089 0-0.169 0.019-0.238 0.056s-0.123 0.090-0.162 0.158c-0.039 0.068-0.058 0.146-0.058 0.234 0 0.087 0.019 0.164 0.058 0.232s0.092 0.121 0.16 0.16c0.069 0.037 0.148 0.056 0.236 0.056 0.093 0 0.177-0.020 0.252-0.060v-0.41zM18.61 19.725h0.324v1.136h0.702v0.264h-1.026v-1.4zM20.177 19.725h0.324v1.4h-0.324v-1.4zM21.654 21.149c-0.111 0-0.218-0.015-0.322-0.044-0.103-0.031-0.185-0.070-0.248-0.118l0.11-0.244c0.060 0.044 0.131 0.079 0.214 0.106s0.165 0.040 0.248 0.040c0.092 0 0.16-0.013 0.204-0.040 0.044-0.028 0.066-0.065 0.066-0.11 0-0.033-0.013-0.061-0.040-0.082-0.025-0.023-0.059-0.041-0.1-0.054-0.040-0.013-0.095-0.028-0.164-0.044-0.107-0.025-0.194-0.051-0.262-0.076s-0.127-0.066-0.176-0.122c-0.048-0.056-0.072-0.131-0.072-0.224 0-0.081 0.022-0.155 0.066-0.22 0.044-0.067 0.11-0.119 0.198-0.158 0.089-0.039 0.198-0.058 0.326-0.058 0.089 0 0.177 0.011 0.262 0.032s0.16 0.052 0.224 0.092l-0.1 0.246c-0.129-0.073-0.259-0.11-0.388-0.11-0.091 0-0.158 0.015-0.202 0.044-0.043 0.029-0.064 0.068-0.064 0.116s0.025 0.084 0.074 0.108c0.051 0.023 0.127 0.045 0.23 0.068 0.107 0.025 0.194 0.051 0.262 0.076s0.126 0.065 0.174 0.12c0.049 0.055 0.074 0.129 0.074 0.222 0 0.080-0.023 0.153-0.068 0.22-0.044 0.065-0.111 0.117-0.2 0.156s-0.198 0.058-0.326 0.058zM24.113 19.725v1.4h-0.324v-0.574h-0.636v0.574h-0.324v-1.4h0.324v0.552h0.636v-0.552h0.324z"></path>
<path fill="#111518" d="M26.108 15.63v0.995h-3.653v-4.55h3.569v0.995h-2.294v0.767h2.021v0.962h-2.021v0.832h2.379zM31.411 12.075v4.55h-1.059l-2.009-2.425v2.425h-1.261v-4.55h1.059l2.009 2.425v-2.425h1.261z"></path>
<path fill="#ff6b09" d="M20.635 14.264c-0.066-0.149-0.158-0.295-0.292-0.465-0.338-0.425-0.441-1.373-0.442-1.382-0.005-0.045-0.037-0.083-0.079-0.097-0.044-0.014-0.090-0.001-0.121 0.033-0.403 0.451-0.234 1.148-0.142 1.426 0.025 0.076 0.053 0.166 0.072 0.257 0.149 0.735-0.139 1.068-0.206 1.135-0.065 0.018-0.11 0.009-0.151-0.035-0.142-0.156-0.189-0.666-0.123-1.331 0.014-0.135 0.010-0.257-0.009-0.37-0.14-0.817-0.654-1.341-0.785-1.525-0.36-0.532-0.396-1.417-0.398-1.425-0.001-0.042-0.025-0.080-0.063-0.098-0.037-0.018-0.081-0.016-0.116 0.008-0.6 0.408-0.549 1.391-0.465 1.94 0.019 0.127 0.057 0.257 0.123 0.42 0.233 0.585-0.046 1.341-0.048 1.348s-0.005 0.012-0.006 0.019c-0.036 0.186-0.095 0.298-0.162 0.298-0.007 0-0.014-0.001-0.022-0.003-0.081-0.017-0.124-0.103-0.125-0.178-0.005-0.969-0.977-1.295-0.988-1.299-0.044-0.014-0.092-0.001-0.121 0.034-0.031 0.035-0.037 0.084-0.016 0.125 0.011 0.024 0.048 0.128 0.023 0.498-0.022 0.332-0.082 0.66-0.18 0.975-0.231 0.755-0.195 1.469-0.193 1.503 0.178 1.935 2.961 2.274 4.613 1.184 0.181-0.119 0.329-0.256 0.438-0.406 0.61-0.841 0.251-1.983-0.016-2.59zM16.401 16.113c0.003 0.063-0.045 0.116-0.108 0.119h-0.007c-0.061 0-0.111-0.047-0.115-0.107-0.010-0.166-0.008-0.34 0.005-0.528 0.005-0.063 0.060-0.109 0.123-0.106 0.063 0.005 0.111 0.059 0.107 0.122-0.013 0.18-0.015 0.343-0.005 0.5zM16.457 15.106c-0.007 0.058-0.056 0.1-0.113 0.1-0.005 0-0.009 0-0.015-0.001-0.062-0.008-0.107-0.064-0.1-0.126l0.055-0.439c0.008-0.061 0.064-0.106 0.128-0.099 0.063 0.008 0.108 0.065 0.1 0.127l-0.055 0.438z"></path>
<path fill="#ff6b09" d="M19.86 11.93c-0.063-0.010-0.105-0.068-0.096-0.13 0.007-0.046 0.049-0.283 0.161-0.401 0.043-0.046 0.116-0.048 0.162-0.005s0.049 0.115 0.005 0.161c-0.048 0.050-0.088 0.194-0.102 0.281-0.010 0.061-0.067 0.104-0.131 0.095z"></path>
<path fill="#ff6b09" d="M15.682 12.496c-0.022-0.085-0.076-0.224-0.129-0.269-0.048-0.041-0.052-0.113-0.011-0.16s0.114-0.052 0.162-0.011c0.123 0.107 0.188 0.339 0.2 0.384 0.016 0.061-0.021 0.123-0.082 0.138-0.063 0.016-0.124-0.022-0.14-0.082z"></path>
</svg>
<svg id="icon-hero-helloen-fireicon" width="32" height="32" viewBox="0 0 32 32" x="336" y="0">
<path fill="#ff6b09" d="M26.176 16.593c-0.284-0.635-0.675-1.261-1.247-1.983-1.442-1.813-1.882-5.857-1.887-5.896-0.020-0.194-0.156-0.354-0.337-0.412-0.186-0.058-0.386-0.005-0.518 0.141-1.721 1.925-0.997 4.897-0.606 6.085 0.108 0.325 0.225 0.708 0.308 1.096 0.636 3.137-0.592 4.558-0.88 4.844-0.279 0.078-0.469 0.039-0.645-0.15-0.606-0.664-0.807-2.841-0.523-5.678 0.059-0.577 0.044-1.096-0.039-1.581-0.598-3.486-2.791-5.722-3.349-6.507-1.535-2.269-1.692-6.046-1.696-6.080-0.005-0.179-0.108-0.339-0.269-0.417-0.156-0.078-0.347-0.068-0.494 0.034-2.562 1.741-2.342 5.935-1.985 8.276 0.083 0.543 0.244 1.096 0.523 1.794 0.992 2.497-0.196 5.721-0.205 5.75s-0.020 0.053-0.024 0.082c-0.152 0.795-0.406 1.27-0.689 1.27-0.029 0-0.059-0.005-0.093-0.015-0.347-0.073-0.528-0.441-0.533-0.761-0.020-4.136-4.17-5.527-4.214-5.542-0.186-0.058-0.391-0.005-0.518 0.146-0.132 0.15-0.156 0.359-0.068 0.533 0.049 0.102 0.205 0.548 0.098 2.124-0.093 1.416-0.352 2.817-0.768 4.16-0.988 3.219-0.831 6.269-0.821 6.415 0.759 8.257 12.635 9.704 19.683 5.052 0.772-0.509 1.403-1.091 1.868-1.731 2.601-3.588 1.071-8.461-0.068-11.050zM8.111 24.481c0.015 0.267-0.191 0.495-0.46 0.509h-0.029c-0.259 0-0.474-0.199-0.489-0.456-0.044-0.708-0.034-1.45 0.020-2.255 0.020-0.267 0.254-0.465 0.523-0.451 0.269 0.019 0.474 0.252 0.455 0.519-0.054 0.766-0.064 1.464-0.020 2.133zM8.351 20.185c-0.029 0.247-0.24 0.427-0.484 0.427-0.020 0-0.039 0-0.064-0.005-0.264-0.034-0.455-0.271-0.425-0.538l0.235-1.872c0.034-0.262 0.274-0.451 0.548-0.422 0.269 0.034 0.46 0.276 0.425 0.543l-0.235 1.867z"></path>
<path fill="#ff6b09" d="M22.868 6.633c-0.267-0.041-0.45-0.288-0.408-0.553 0.030-0.197 0.207-1.205 0.686-1.713 0.185-0.196 0.493-0.206 0.691-0.022s0.207 0.49 0.022 0.685c-0.203 0.215-0.376 0.829-0.433 1.197-0.041 0.262-0.287 0.445-0.558 0.405z"></path>
<path fill="#ff6b09" d="M5.045 9.048c-0.094-0.361-0.326-0.955-0.549-1.149-0.203-0.177-0.223-0.483-0.045-0.684s0.486-0.222 0.69-0.045c0.527 0.458 0.802 1.445 0.852 1.638 0.067 0.259-0.091 0.523-0.352 0.59-0.267 0.067-0.529-0.094-0.595-0.349z"></path>
</svg>
<svg id="icon-hero-insuranceicon" width="32" height="32" viewBox="0 0 32 32" x="384" y="0">
<path fill="#ff6b09" d="M2.542 13.742c0 0.357-0.542 0.357-0.542 0 0-7.588 6.154-13.742 13.742-13.742 7.591 0 13.742 6.154 13.742 13.742 0 0.357-0.539 0.357-0.539 0 0-5.129-8.428-5.132-8.428 0 0 0.357-0.555 0.357-0.555 0 0-5.116-8.441-5.116-8.441 0 0 0.357-0.555 0.357-0.555 0 0-5.106-8.425-5.142-8.425 0zM11.015 11.75c0.146-2.952 0.61-5.599 1.285-7.62 0.539-1.606 1.22-2.826 1.992-3.51-5.794 0.633-10.485 5.025-11.533 10.722 1.995-2.878 6.602-2.647 8.256 0.409zM19.921 11.617c-0.149-2.839-0.6-5.379-1.249-7.316-1.674-5.012-4.185-5.012-5.859 0-0.649 1.937-1.097 4.477-1.249 7.316 1.8-3.059 6.556-3.059 8.357 0zM28.725 11.341c-1.045-5.697-5.736-10.089-11.533-10.722 0.775 0.684 1.453 1.904 1.992 3.51 0.675 2.021 1.139 4.668 1.285 7.62 1.664-3.072 6.284-3.254 8.256-0.409z"></path>
<path fill="#ff6b09" d="M13.938 20.030v-2.791c-0.503 0.334-0.899 0.85-0.899 1.48 0 0.613 0.402 1.019 0.899 1.311zM14.48 20.896c-0.963-0.441-1.979-0.957-1.979-2.177 0-1.259 0.957-1.888 1.979-2.359v4.536z"></path>
<path fill="#ff6b09" d="M17.546 24.24v2.822c0.509-0.337 0.908-0.856 0.908-1.486 0-0.62-0.409-1.038-0.908-1.337zM17.007 23.371c0.967 0.448 1.989 0.98 1.989 2.206 0 1.262-0.963 1.891-1.989 2.358v-4.564z"></path>
<path fill="#ff6b09" d="M17.546 14.063c2.219 0.513 4.5 2.174 4.5 4.655 0 2.125-3.591 2.047-3.591 0 0-0.633-0.399-1.152-0.908-1.486v3.971c2.054 0.672 4.506 1.875 4.506 4.373 0 2.485-2.281 4.143-4.506 4.652-0.010 2.365-3.601 2.362-3.607-0.003-1.265-0.292-2.365-0.882-3.16-1.664-0.834-0.824-1.327-1.859-1.327-2.985 0-2.093 3.588-2.093 3.588 0 0 0.626 0.396 1.142 0.899 1.476v-3.968c-2.037-0.659-4.503-1.898-4.503-4.373 0-2.485 2.281-4.143 4.503-4.652 0.010-2.365 3.601-2.362 3.607 0.003zM14.48 14.070v0.431c-2.112 0.419-4.506 1.771-4.506 4.211 0 2.346 2.628 3.397 4.506 3.977v5.243c-1.015-0.464-1.979-1.090-1.979-2.355 0-1.382-2.511-1.382-2.511 0 0 0.976 0.435 1.878 1.168 2.599 0.931 0.921 2.060 1.359 3.322 1.609v0.435c0 1.664 2.527 1.664 2.527 0v-0.431c2.118-0.422 4.503-1.775 4.503-4.211 0-2.368-2.621-3.387-4.503-3.981v-5.239c1.019 0.464 1.989 1.090 1.989 2.362 0 1.346 2.508 1.402 2.508 0 0-2.436-2.381-3.792-4.496-4.214v-0.435c0-1.664-2.527-1.664-2.527 0z"></path>
</svg>
<svg id="icon-hero-insurance-frameicon" width="32" height="32" viewBox="0 0 32 32" x="432" y="0">
<path fill="#ff6b09" d="M9.667 14.937c0 0.168-0.255 0.168-0.255 0 0-3.571 2.896-6.467 6.467-6.467 3.572 0 6.467 2.896 6.467 6.467 0 0.168-0.253 0.168-0.253 0 0-2.414-3.966-2.415-3.966 0 0 0.168-0.261 0.168-0.261 0 0-2.408-3.972-2.408-3.972 0 0 0.168-0.261 0.168-0.261 0 0-2.403-3.965-2.42-3.965 0zM13.654 14c0.069-1.389 0.287-2.635 0.605-3.586 0.253-0.756 0.574-1.33 0.937-1.652-2.727 0.298-4.934 2.365-5.427 5.046 0.939-1.354 3.107-1.246 3.885 0.192zM17.845 13.938c-0.070-1.336-0.282-2.531-0.588-3.443-0.788-2.359-1.969-2.359-2.757 0-0.305 0.911-0.516 2.107-0.588 3.443 0.847-1.44 3.085-1.44 3.933 0zM21.988 13.808c-0.492-2.681-2.699-4.748-5.427-5.046 0.365 0.322 0.684 0.896 0.937 1.652 0.318 0.951 0.536 2.197 0.605 3.586 0.783-1.446 2.957-1.531 3.885-0.192z"></path>
<path fill="#ff6b09" d="M15.030 17.896v-1.313c-0.237 0.157-0.423 0.4-0.423 0.696 0 0.289 0.189 0.479 0.423 0.617zM15.285 18.304c-0.453-0.208-0.931-0.45-0.931-1.025 0-0.592 0.45-0.889 0.931-1.11v2.135z"></path>
<path fill="#ff6b09" d="M16.727 19.878v1.328c0.24-0.159 0.427-0.403 0.427-0.699 0-0.292-0.192-0.489-0.427-0.629zM16.474 19.469c0.455 0.211 0.936 0.461 0.936 1.038 0 0.594-0.453 0.89-0.936 1.11v-2.148z"></path>
<path fill="#ff6b09" d="M16.727 15.089c1.044 0.241 2.117 1.023 2.117 2.191 0 1-1.69 0.963-1.69 0 0-0.298-0.188-0.542-0.427-0.699v1.869c0.966 0.316 2.12 0.882 2.12 2.058 0 1.169-1.073 1.95-2.12 2.189-0.005 1.113-1.695 1.111-1.698-0.002-0.595-0.137-1.113-0.415-1.487-0.783-0.392-0.388-0.624-0.875-0.624-1.405 0-0.985 1.688-0.985 1.688 0 0 0.295 0.186 0.537 0.423 0.695v-1.867c-0.959-0.31-2.119-0.893-2.119-2.058 0-1.169 1.073-1.95 2.119-2.189 0.005-1.113 1.695-1.111 1.698 0.002zM15.285 15.092v0.203c-0.994 0.197-2.12 0.834-2.12 1.982 0 1.104 1.237 1.598 2.12 1.872v2.467c-0.478-0.218-0.931-0.513-0.931-1.108 0-0.65-1.182-0.65-1.182 0 0 0.459 0.205 0.884 0.55 1.223 0.438 0.434 0.969 0.64 1.563 0.757v0.205c0 0.783 1.189 0.783 1.189 0v-0.203c0.997-0.198 2.119-0.835 2.119-1.982 0-1.114-1.233-1.594-2.119-1.873v-2.466c0.479 0.218 0.936 0.513 0.936 1.111 0 0.634 1.18 0.66 1.18 0 0-1.147-1.121-1.785-2.116-1.983v-0.205c0-0.783-1.189-0.783-1.189 0z"></path>
<path fill="none" stroke="#ff6b09" stroke-linejoin="miter" stroke-linecap="butt" stroke-miterlimit="4" stroke-width="0.6275" d="M31.686 4.62v-4.306h-31.373v31.373h31.373v-4.306"></path>
</svg>
<svg id="icon-hero-mod-teachericon" width="32" height="32" viewBox="0 0 32 32" x="480" y="0">
<path fill="#ff6b09" d="M29.547 0.208h-15.418c-1.004 0-1.82 0.816-1.82 1.82v6.382l-11.454 4.808c-0.13 0.054-0.218 0.177-0.228 0.317s0.059 0.274 0.18 0.347l1.461 0.874v9.317c-0.747 0.17-1.308 0.839-1.308 1.639v0.898c0 0.206 0.167 0.373 0.373 0.373h2.616c0.206 0 0.373-0.167 0.373-0.373v-0.898c0-0.799-0.561-1.467-1.308-1.638v-8.871l1.155 0.691c-0.035 0.266-0.005-0.464-0.016 4.337 0 1.578 4.043 2.424 8.157 2.472v7.271c0 0.376 0.115 0.725 0.312 1.015 0.327 0.484 0.881 0.803 1.508 0.803h15.418c1.003 0 1.818-0.816 1.818-1.818 0 0.050-0.002-1.54 0-27.945 0-0.99-0.819-1.82-1.817-1.82zM3.576 25.712v0.525h-1.87v-0.525c0-0.517 0.418-0.937 0.933-0.937 0.517 0 0.937 0.421 0.937 0.937zM29.547 31.044h-15.418c-0.37 0-0.697-0.187-0.89-0.472-0.116-0.171-0.183-0.377-0.183-0.599v-2.52h17.561v2.521c0 0.584-0.487 1.070-1.070 1.070zM30.616 26.707h-17.562v-4.001c2.009-0.023 8.161-0.465 8.161-2.475-0.002-3.016 0.005-4.24-0.009-4.343l3.35-2.006c0.121-0.072 0.19-0.206 0.18-0.347s-0.098-0.263-0.228-0.317l-11.454-4.808v-3.115h17.562v21.412zM12.682 17.755c-2.069 0-6.053 0.267-7.784 1.397 0.011-3.457-0.12-3.232 0.306-3.525 1.075-0.792 4.15-1.344 7.478-1.344 1.451 0 7.788 0.399 7.788 1.741v3.129c-1.747-1.141-5.71-1.398-7.788-1.398zM13.055 2.028c0-0.591 0.481-1.072 1.072-1.072h15.418c0.592 0 1.070 0.488 1.070 1.072v2.521h-17.561v-2.52zM12.682 9.063l10.859 4.558-2.691 1.61c-1.43-1.419-6.162-1.694-8.168-1.694-2.008 0-6.741 0.276-8.168 1.694l-2.692-1.611 10.86-4.558zM4.898 20.231c0-0.604 2.673-1.731 7.784-1.731 5.113 0 7.788 1.127 7.788 1.731s-2.675 1.731-7.788 1.731c-5.11 0-7.784-1.127-7.784-1.731z"></path>
<path fill="#ff6b09" d="M21.837 28.016c-0.68 0-1.234 0.553-1.234 1.234s0.553 1.234 1.234 1.234c0.68 0 1.234-0.554 1.234-1.234s-0.553-1.234-1.234-1.234zM21.837 29.737c-0.269 0-0.488-0.219-0.488-0.488s0.219-0.488 0.488-0.488c0.269 0 0.488 0.219 0.488 0.488s-0.219 0.488-0.488 0.488z"></path>
<path fill="#ff6b09" d="M23.26 2.379h-2.846v0.746h2.846v-0.746z"></path>
</svg>
<svg id="icon-hero-mod-teach-frameicon" width="32" height="32" viewBox="0 0 32 32" x="528" y="0">
<path fill="#ff6b09" d="M22.375 8.412h-7.256c-0.472 0-0.857 0.384-0.857 0.857v3.003l-5.39 2.262c-0.061 0.026-0.103 0.083-0.107 0.149s0.028 0.129 0.085 0.163l0.687 0.411v4.384c-0.352 0.080-0.615 0.395-0.615 0.771v0.423c0 0.097 0.079 0.176 0.176 0.176h1.231c0.097 0 0.176-0.079 0.176-0.176v-0.423c0-0.376-0.264-0.69-0.616-0.771v-4.175l0.544 0.325c-0.017 0.125-0.002-0.218-0.008 2.041 0 0.743 1.903 1.141 3.838 1.163v3.421c0 0.177 0.054 0.341 0.147 0.478 0.154 0.228 0.415 0.378 0.709 0.378h7.256c0.472 0 0.856-0.384 0.856-0.856 0 0.023-0.001-0.725 0-13.151 0-0.466-0.385-0.857-0.855-0.857zM10.153 20.413v0.247h-0.88v-0.247c0-0.243 0.197-0.441 0.439-0.441 0.243 0 0.441 0.198 0.441 0.441zM22.375 22.923h-7.256c-0.174 0-0.328-0.088-0.419-0.222-0.054-0.081-0.086-0.178-0.086-0.282v-1.186h8.264v1.186c0 0.275-0.229 0.503-0.503 0.503zM22.878 20.882h-8.264v-1.883c0.945-0.011 3.841-0.219 3.841-1.165-0.001-1.419 0.003-1.995-0.004-2.044l1.576-0.944c0.057-0.034 0.089-0.097 0.085-0.163s-0.046-0.124-0.107-0.149l-5.39-2.262v-1.466h8.264v10.076zM14.438 16.669c-0.974 0-2.848 0.126-3.663 0.658 0.005-1.627-0.056-1.521 0.144-1.659 0.506-0.373 1.953-0.633 3.519-0.633 0.683 0 3.665 0.188 3.665 0.819v1.472c-0.822-0.537-2.687-0.658-3.665-0.658zM14.614 9.268c0-0.278 0.226-0.505 0.505-0.505h7.256c0.279 0 0.504 0.23 0.504 0.505v1.186h-8.264v-1.186zM14.438 12.579l5.11 2.145-1.266 0.758c-0.673-0.668-2.9-0.797-3.844-0.797-0.945 0-3.172 0.13-3.844 0.797l-1.267-0.758 5.11-2.145zM10.776 17.834c0-0.284 1.258-0.814 3.663-0.814 2.406 0 3.665 0.53 3.665 0.814s-1.259 0.815-3.665 0.815c-2.405 0-3.663-0.53-3.663-0.815z"></path>
<path fill="#ff6b09" d="M18.747 21.498c-0.32 0-0.581 0.26-0.581 0.581s0.26 0.581 0.581 0.581c0.32 0 0.581-0.261 0.581-0.581s-0.26-0.581-0.581-0.581zM18.747 22.308c-0.127 0-0.23-0.103-0.23-0.23s0.103-0.229 0.23-0.229c0.127 0 0.23 0.103 0.23 0.229s-0.103 0.23-0.23 0.23z"></path>
<path fill="#ff6b09" d="M19.416 9.433h-1.339v0.351h1.339v-0.351z"></path>
<path fill="none" stroke="#ff6b09" stroke-linejoin="miter" stroke-linecap="butt" stroke-miterlimit="4" stroke-width="0.6275" d="M31.686 4.62v-4.306h-31.373v31.373h31.373v-4.306"></path>
</svg>
<svg id="icon-hero-wave-bgicon" width="32" height="32" viewBox="0 0 32 32" x="576" y="0">
<path fill="#fff" d="M4.454 22.41c-1.886 0.2-3.231 1.333-4.454 1.505v-16.724h32v9.19c-0.902-0.213-4.435 3.349-6.444 4.067-2.956 0.486-1.146-1.886-8.064 1.476s-10.815 0.25-13.039 0.486z"></path>
</svg>
<svg id="icon-how-do-ability-icon" width="32" height="32" viewBox="0 0 32 32" x="624" y="0">
<path fill="#ff6b09" d="M2 27.928h10.701c0.542 1.14 1.677 1.876 2.958 1.876h0.676c1.282 0 2.416-0.736 2.958-1.876h10.707c1.103 0 2-0.909 2-2.027v-19.422c0-1.118-0.897-2.027-2-2.027h-1.080v-0.905c0-0.745-0.598-1.351-1.333-1.351h-23.18c-0.735 0-1.333 0.606-1.333 1.351v0.905h-1.074c-1.103 0-2 0.909-2 2.027v19.422c0 1.118 0.897 2.027 2 2.027zM27.585 23.76h-10.919v-15.699c2.524 0.334 4.48 2.523 4.48 5.17v0.609l-0.158-0.035c-0.172-0.037-0.352-0.006-0.502 0.090s-0.255 0.249-0.292 0.424l-1.061 4.894c-0.079 0.364 0.148 0.724 0.508 0.804l2.294 0.512c0.119 0.025 0.239 0.039 0.359 0.039 0.807 0 1.493-0.559 1.669-1.361l0.614-2.83c0.202-0.929-0.379-1.854-1.299-2.061l-0.798-0.178v-0.907c0-3.394-2.553-6.194-5.814-6.535v-3.149h10.92l-0.001 20.213zM21.354 15.27l1.637 0.366c0.204 0.046 0.329 0.243 0.285 0.451l-0.614 2.83c-0.044 0.204-0.268 0.331-0.444 0.294l-1.639-0.366 0.775-3.573zM4.407 3.547h10.926v3.148c-3.264 0.338-5.82 3.14-5.82 6.536v0.907l-0.8 0.179c-0.445 0.1-0.826 0.369-1.070 0.757-0.245 0.389-0.326 0.852-0.227 1.302l0.613 2.827c0.166 0.791 0.868 1.366 1.671 1.366 0.12 0 0.241-0.013 0.364-0.040l2.284-0.511c0.359-0.081 0.586-0.44 0.507-0.804l-1.061-4.894c-0.038-0.175-0.143-0.328-0.292-0.424s-0.331-0.128-0.503-0.090l-0.152 0.034v-0.608c0-2.649 1.96-4.839 4.487-5.171v15.7h-10.926v-20.213zM10.635 15.271l0.776 3.573-1.63 0.365c-0.2 0.046-0.405-0.088-0.448-0.291l-0.614-2.834c-0.022-0.098-0.005-0.199 0.048-0.283s0.137-0.143 0.234-0.166l1.633-0.365zM1.333 6.479c0-0.372 0.299-0.676 0.667-0.676h1.074v17.956c0 0.745 0.598 1.351 1.333 1.351h23.18c0.735 0 1.333-0.606 1.333-1.351v-17.956h1.080c0.368 0 0.667 0.303 0.667 0.676v19.422c0 0.372-0.299 0.676-0.667 0.676h-11.16c-0.293 0-0.551 0.194-0.637 0.477-0.253 0.837-1.004 1.399-1.868 1.399h-0.676c-0.861 0-1.611-0.56-1.87-1.407-0.089-0.28-0.345-0.469-0.635-0.469h-11.154c-0.368 0-0.667-0.303-0.667-0.676v-19.422z"></path>
</svg>
<svg id="icon-how-do-ability-iconfr" width="32" height="32" viewBox="0 0 32 32" x="672" y="0">
<path fill="#ff6b09" d="M3.018 26.77h9.923c0.503 1.057 1.555 1.74 2.743 1.74h0.627c1.189 0 2.24-0.682 2.743-1.74h9.928c1.023 0 1.855-0.843 1.855-1.879v-18.010c0-1.036-0.832-1.879-1.855-1.879h-1.002v-0.839c0-0.691-0.555-1.253-1.236-1.253h-21.494c-0.682 0-1.236 0.562-1.236 1.253v0.839h-0.995c-1.023 0-1.855 0.843-1.855 1.879v18.010c0 1.036 0.832 1.879 1.855 1.879zM26.743 22.905h-10.125v-14.557c2.34 0.31 4.155 2.339 4.155 4.794v0.565l-0.147-0.033c-0.159-0.035-0.327-0.006-0.465 0.084s-0.236 0.231-0.271 0.393l-0.984 4.538c-0.073 0.337 0.138 0.671 0.471 0.745l2.127 0.475c0.11 0.024 0.222 0.036 0.333 0.036 0.748 0 1.385-0.518 1.548-1.262l0.569-2.624c0.188-0.862-0.351-1.719-1.204-1.911l-0.74-0.165v-0.841c0-3.147-2.367-5.744-5.391-6.060v-2.92h10.126l-0.001 18.743zM20.964 15.032l1.518 0.339c0.19 0.043 0.305 0.226 0.264 0.418l-0.569 2.624c-0.041 0.19-0.248 0.307-0.412 0.272l-1.52-0.34 0.719-3.313zM5.25 4.162h10.132v2.919c-3.027 0.313-5.397 2.912-5.397 6.061v0.841l-0.741 0.166c-0.413 0.093-0.765 0.342-0.992 0.702-0.228 0.361-0.302 0.79-0.211 1.207l0.568 2.621c0.154 0.734 0.805 1.266 1.549 1.266 0.112 0 0.223-0.012 0.337-0.037l2.118-0.474c0.333-0.075 0.543-0.408 0.47-0.745l-0.984-4.538c-0.035-0.162-0.133-0.304-0.271-0.393s-0.307-0.119-0.466-0.084l-0.141 0.032v-0.564c0-2.457 1.817-4.487 4.161-4.795v14.558h-10.132v-18.743zM11.025 15.033l0.72 3.313-1.512 0.338c-0.186 0.042-0.376-0.082-0.415-0.27l-0.569-2.627c-0.021-0.091-0.004-0.184 0.045-0.262s0.127-0.133 0.217-0.154l1.515-0.339zM2.4 6.881c0-0.345 0.277-0.626 0.618-0.626h0.995v16.65c0 0.691 0.555 1.253 1.236 1.253h21.494c0.682 0 1.236-0.562 1.236-1.253v-16.65h1.002c0.341 0 0.618 0.281 0.618 0.626v18.010c0 0.345-0.277 0.626-0.618 0.626h-10.349c-0.272 0-0.511 0.18-0.591 0.443-0.235 0.776-0.931 1.297-1.732 1.297h-0.627c-0.798 0-1.494-0.519-1.734-1.304-0.082-0.259-0.32-0.435-0.589-0.435h-10.342c-0.341 0-0.618-0.281-0.618-0.626v-18.010z"></path>
</svg>
<svg id="icon-how-do-adobted-icon" width="32" height="32" viewBox="0 0 32 32" x="720" y="0">
<path fill="#ff6b09" d="M30.977 4.975c0-0.001-0.001-0.001-0.001-0.002-0.007-0.016-0.015-0.031-0.024-0.045-0.001-0.001-0.002-0.002-0.002-0.003-0.010-0.015-0.021-0.029-0.034-0.042l-4.848-4.799c-0.013-0.012-0.026-0.023-0.041-0.033-0.003-0.002-0.006-0.004-0.009-0.006-0.012-0.007-0.024-0.014-0.036-0.019-0.004-0.002-0.007-0.003-0.011-0.005-0.032-0.013-0.066-0.019-0.1-0.020-0.002 0-0.004-0-0.005-0h-21.357c-0.158 0-0.286 0.127-0.286 0.284v29.271c0 0.019 0.002 0.037 0.006 0.056 0.002 0.008 0.005 0.015 0.007 0.023 0.003 0.010 0.006 0.020 0.009 0.030 0.004 0.009 0.009 0.017 0.014 0.026 0.004 0.007 0.008 0.016 0.013 0.023 0.010 0.014 0.021 0.028 0.033 0.040 0.001 0.001 0.001 0.002 0.003 0.003l2.183 2.161c0.112 0.111 0.293 0.111 0.405 0l1.982-1.961 1.981 1.961c0.056 0.056 0.129 0.083 0.203 0.083s0.146-0.027 0.202-0.083l1.981-1.96 1.982 1.96c0.112 0.111 0.293 0.111 0.405 0l1.981-1.96 1.981 1.96c0.112 0.111 0.293 0.111 0.405 0l1.982-1.961 1.981 1.961c0.056 0.056 0.129 0.083 0.202 0.083s0.147-0.027 0.203-0.083l1.981-1.96 1.982 1.96c0.112 0.111 0.293 0.111 0.405 0l2.183-2.161c0.004-0.004 0.007-0.009 0.011-0.014 0.008-0.009 0.017-0.019 0.024-0.029 0.007-0.009 0.011-0.020 0.017-0.030 0.003-0.007 0.007-0.012 0.009-0.019 0.006-0.013 0.009-0.026 0.012-0.039 0.001-0.005 0.003-0.009 0.005-0.013 0.004-0.019 0.006-0.038 0.006-0.058v-24.47c-0.001-0.037-0.008-0.074-0.023-0.108zM26.151 0.969l3.869 3.83h-3.869v-3.83zM30.426 29.437l-1.896 1.878-1.982-1.961c-0.112-0.11-0.293-0.11-0.405 0l-1.981 1.961-1.981-1.961c-0.112-0.11-0.293-0.11-0.405 0l-1.982 1.961-1.98-1.96c0-0-0-0.001-0-0.001-0.056-0.055-0.129-0.083-0.203-0.083s-0.147 0.028-0.202 0.083c-0 0-0 0-0 0l-1.98 1.961-1.982-1.961c-0.112-0.11-0.293-0.11-0.405 0l-1.981 1.961-1.981-1.961c-0.112-0.11-0.293-0.11-0.405 0l-1.982 1.961-1.897-1.878v-28.87h20.783v4.516c0 0.157 0.128 0.284 0.287 0.284h4.561l0 24.071z"></path>
<path fill="#ff6b09" d="M6.931 3.251h9.384c0.158 0 0.287-0.127 0.287-0.284s-0.128-0.284-0.287-0.284h-9.384c-0.159 0-0.287 0.127-0.287 0.284s0.128 0.284 0.287 0.284z"></path>
<path fill="#ff6b09" d="M6.931 5.005h15.049c0.158 0 0.287-0.127 0.287-0.284s-0.128-0.284-0.287-0.284h-15.049c-0.159 0-0.287 0.127-0.287 0.284s0.128 0.284 0.287 0.284z"></path>
<path fill="#ff6b09" d="M6.645 6.58v9.186c0 0.157 0.128 0.284 0.287 0.284h21.357c0.158 0 0.286-0.127 0.286-0.284v-9.186c0-0.157-0.128-0.284-0.286-0.284h-21.357c-0.159 0-0.287 0.127-0.287 0.284zM12.978 6.864h15.024v2.442h-15.024v-2.442zM12.978 9.873h15.024v2.441h-15.024v-2.441zM12.978 12.881h15.024v2.602h-15.024v-2.602zM7.218 6.864h5.187v2.442h-5.187v-2.442zM7.218 9.873h5.187v2.441h-5.187v-2.441zM7.218 12.881h5.187v2.602h-5.187v-2.602z"></path>
<path fill="#ff6b09" d="M28.289 17.327h-21.357c-0.159 0-0.287 0.127-0.287 0.284v9.186c0 0.157 0.128 0.283 0.287 0.283s0.286-0.127 0.286-0.283v-2.885h5.187v2.885c0 0.157 0.128 0.283 0.286 0.283s0.287-0.127 0.287-0.283v-2.885h15.024v2.885c0 0.157 0.128 0.283 0.287 0.283s0.286-0.127 0.286-0.283v-9.186c0.001-0.157-0.127-0.284-0.286-0.284zM12.405 23.344h-5.187v-2.44h5.187v2.44zM12.405 20.336h-5.187v-2.441h5.187v2.441zM28.002 23.344h-15.024v-2.44h15.024v2.44zM28.002 20.336h-15.024v-2.441h15.024v2.441z"></path>
<path fill="#ff6b09" d="M2.863 0c-0.158 0-0.287 0.127-0.287 0.284v29.271c0 0.156 0.128 0.283 0.287 0.283s0.287-0.127 0.287-0.283v-29.271c0-0.157-0.128-0.284-0.287-0.284z"></path>
<path fill="#ff6b09" d="M1.287 0c-0.158 0-0.287 0.127-0.287 0.284v29.271c0 0.156 0.128 0.283 0.287 0.283s0.286-0.127 0.286-0.283v-29.271c0-0.157-0.128-0.284-0.286-0.284z"></path>
</svg>
<svg id="icon-how-do-adopted-prog-iconfr" width="32" height="32" viewBox="0 0 32 32" x="0" y="48">
<path fill="#ff6b09" d="M30.977 4.975c0-0.001-0.001-0.001-0.001-0.002-0.007-0.016-0.015-0.031-0.024-0.045-0.001-0.001-0.002-0.002-0.002-0.003-0.010-0.015-0.021-0.029-0.034-0.042l-4.848-4.799c-0.013-0.012-0.026-0.023-0.041-0.033-0.003-0.002-0.006-0.004-0.009-0.006-0.012-0.007-0.024-0.014-0.036-0.019-0.004-0.002-0.007-0.003-0.011-0.005-0.032-0.013-0.066-0.019-0.1-0.020-0.002 0-0.004-0-0.005-0h-21.357c-0.158 0-0.286 0.127-0.286 0.284v29.271c0 0.019 0.002 0.037 0.006 0.056 0.002 0.008 0.005 0.015 0.007 0.023 0.003 0.010 0.006 0.020 0.009 0.030 0.004 0.009 0.009 0.017 0.014 0.026 0.004 0.007 0.008 0.016 0.013 0.023 0.010 0.014 0.021 0.028 0.033 0.040 0.001 0.001 0.001 0.002 0.003 0.003l2.183 2.161c0.112 0.111 0.293 0.111 0.405 0l1.982-1.961 1.981 1.961c0.056 0.056 0.129 0.083 0.203 0.083s0.146-0.027 0.202-0.083l1.981-1.96 1.982 1.96c0.112 0.111 0.293 0.111 0.405 0l1.981-1.96 1.981 1.96c0.112 0.111 0.293 0.111 0.405 0l1.982-1.961 1.981 1.961c0.056 0.056 0.129 0.083 0.202 0.083s0.147-0.027 0.203-0.083l1.981-1.96 1.982 1.96c0.112 0.111 0.293 0.111 0.405 0l2.183-2.161c0.004-0.004 0.007-0.009 0.011-0.014 0.008-0.009 0.017-0.019 0.024-0.029 0.007-0.009 0.011-0.020 0.017-0.030 0.003-0.007 0.007-0.012 0.009-0.019 0.006-0.013 0.009-0.026 0.012-0.039 0.001-0.005 0.003-0.009 0.005-0.013 0.004-0.019 0.006-0.038 0.006-0.058v-24.47c-0.001-0.037-0.008-0.074-0.023-0.108zM26.151 0.969l3.869 3.83h-3.869v-3.83zM30.426 29.437l-1.896 1.878-1.982-1.961c-0.112-0.11-0.293-0.11-0.405 0l-1.981 1.961-1.981-1.961c-0.112-0.11-0.293-0.11-0.405 0l-1.982 1.961-1.98-1.96c0-0-0-0.001-0-0.001-0.056-0.055-0.129-0.083-0.203-0.083s-0.147 0.028-0.202 0.083c-0 0-0 0-0 0l-1.98 1.961-1.982-1.961c-0.112-0.11-0.293-0.11-0.405 0l-1.981 1.961-1.981-1.961c-0.112-0.11-0.293-0.11-0.405 0l-1.982 1.961-1.897-1.878v-28.87h20.783v4.516c0 0.157 0.128 0.284 0.287 0.284h4.561l0 24.071z"></path>
<path fill="#ff6b09" d="M6.931 3.251h9.384c0.158 0 0.287-0.127 0.287-0.284s-0.128-0.284-0.287-0.284h-9.384c-0.159 0-0.287 0.127-0.287 0.284s0.128 0.284 0.287 0.284z"></path>
<path fill="#ff6b09" d="M6.931 5.005h15.049c0.158 0 0.287-0.127 0.287-0.284s-0.128-0.284-0.287-0.284h-15.049c-0.159 0-0.287 0.127-0.287 0.284s0.128 0.284 0.287 0.284z"></path>
<path fill="#ff6b09" d="M6.645 6.58v9.186c0 0.157 0.128 0.284 0.287 0.284h21.357c0.158 0 0.286-0.127 0.286-0.284v-9.186c0-0.157-0.128-0.284-0.286-0.284h-21.357c-0.159 0-0.287 0.127-0.287 0.284zM12.978 6.864h15.024v2.442h-15.024v-2.442zM12.978 9.873h15.024v2.441h-15.024v-2.441zM12.978 12.881h15.024v2.602h-15.024v-2.602zM7.218 6.864h5.187v2.442h-5.187v-2.442zM7.218 9.873h5.187v2.441h-5.187v-2.441zM7.218 12.881h5.187v2.602h-5.187v-2.602z"></path>
<path fill="#ff6b09" d="M28.289 17.327h-21.357c-0.159 0-0.287 0.127-0.287 0.284v9.186c0 0.157 0.128 0.283 0.287 0.283s0.286-0.127 0.286-0.283v-2.885h5.187v2.885c0 0.157 0.128 0.283 0.286 0.283s0.287-0.127 0.287-0.283v-2.885h15.024v2.885c0 0.157 0.128 0.283 0.287 0.283s0.286-0.127 0.286-0.283v-9.186c0.001-0.157-0.127-0.284-0.286-0.284zM12.405 23.344h-5.187v-2.44h5.187v2.44zM12.405 20.336h-5.187v-2.441h5.187v2.441zM28.002 23.344h-15.024v-2.44h15.024v2.44zM28.002 20.336h-15.024v-2.441h15.024v2.441z"></path>
<path fill="#ff6b09" d="M2.863 0c-0.158 0-0.287 0.127-0.287 0.284v29.271c0 0.156 0.128 0.283 0.287 0.283s0.287-0.127 0.287-0.283v-29.271c0-0.157-0.128-0.284-0.287-0.284z"></path>
<path fill="#ff6b09" d="M1.287 0c-0.158 0-0.287 0.127-0.287 0.284v29.271c0 0.156 0.128 0.283 0.287 0.283s0.286-0.127 0.286-0.283v-29.271c0-0.157-0.128-0.284-0.286-0.284z"></path>
</svg>
<svg id="icon-how-do-classroom-lern-icon" width="32" height="32" viewBox="0 0 32 32" x="48" y="48">
<path fill="#ff6b09" d="M29.808 0h-15.709c-1.023 0-1.855 0.827-1.855 1.844v6.466l-11.671 4.871c-0.132 0.055-0.222 0.179-0.232 0.321s0.061 0.278 0.184 0.351l1.488 0.886v9.439c-0.761 0.173-1.332 0.85-1.332 1.66v0.91c0 0.209 0.17 0.378 0.38 0.378h2.665c0.21 0 0.38-0.169 0.38-0.378v-0.91c0-0.809-0.571-1.486-1.333-1.659v-8.988l1.177 0.7c-0.036 0.27-0.005-0.47-0.017 4.395 0 1.599 4.119 2.456 8.311 2.505v7.366c0 0.381 0.117 0.734 0.317 1.028 0.333 0.49 0.898 0.813 1.536 0.813h15.709c1.022 0 1.853-0.827 1.853-1.842 0 0.050-0.002-1.56 0-28.313 0-1.003-0.834-1.844-1.852-1.844zM3.346 25.839v0.532h-1.905v-0.532c0-0.524 0.426-0.95 0.95-0.95 0.527 0 0.955 0.426 0.955 0.95zM29.808 31.242h-15.709c-0.377 0-0.71-0.19-0.907-0.478-0.118-0.173-0.187-0.382-0.187-0.607v-2.554h17.893v2.555c0 0.592-0.496 1.084-1.090 1.084zM30.898 26.848h-17.893v-4.054c2.046-0.023 8.316-0.471 8.316-2.507-0.002-3.056 0.005-4.295-0.010-4.4l3.413-2.033c0.123-0.073 0.194-0.209 0.184-0.351s-0.1-0.266-0.232-0.321l-11.67-4.871v-3.157h17.893v21.695zM12.624 17.778c-2.108 0-6.167 0.271-7.931 1.416 0.011-3.502-0.122-3.274 0.312-3.571 1.095-0.802 4.228-1.362 7.619-1.362 1.479 0 7.936 0.404 7.936 1.764v3.17c-1.78-1.156-5.818-1.416-7.936-1.416zM13.005 1.844c0-0.599 0.49-1.087 1.093-1.087h15.709c0.603 0 1.091 0.494 1.091 1.086v2.554h-17.893v-2.553zM12.624 8.971l11.064 4.618-2.741 1.631c-1.458-1.437-6.279-1.716-8.323-1.716-2.046 0-6.868 0.28-8.322 1.716l-2.742-1.632 11.065-4.618zM4.694 20.287c0-0.612 2.724-1.753 7.931-1.753 5.21 0 7.936 1.142 7.936 1.753s-2.726 1.754-7.936 1.754c-5.207 0-7.931-1.142-7.931-1.754z"></path>
<path fill="#ff6b09" d="M21.952 28.174c-0.693 0-1.257 0.56-1.257 1.25s0.564 1.25 1.257 1.25c0.693 0 1.257-0.561 1.257-1.25s-0.564-1.25-1.257-1.25zM21.952 29.918c-0.274 0-0.497-0.222-0.497-0.495s0.223-0.494 0.497-0.494c0.274 0 0.497 0.221 0.497 0.494s-0.223 0.495-0.497 0.495z"></path>
<path fill="#ff6b09" d="M23.402 2.2h-2.899v0.756h2.899v-0.756z"></path>
</svg>
<svg id="icon-how-do-classroom-mlearn-iconfr" width="32" height="32" viewBox="0 0 32 32" x="96" y="48">
<path fill="#ff6b09" d="M28.090 2.327h-13.424c-0.874 0-1.585 0.707-1.585 1.576v5.526l-9.973 4.162c-0.113 0.047-0.19 0.153-0.198 0.275s0.052 0.238 0.157 0.3l1.272 0.757v8.066c-0.65 0.148-1.138 0.726-1.138 1.419v0.778c0 0.178 0.145 0.323 0.325 0.323h2.277c0.179 0 0.325-0.145 0.325-0.323v-0.778c0-0.692-0.488-1.27-1.139-1.418v-7.681l1.006 0.599c-0.031 0.231-0.004-0.402-0.014 3.755 0 1.367 3.52 2.099 7.102 2.141v6.295c0 0.325 0.1 0.628 0.271 0.879 0.285 0.419 0.767 0.695 1.313 0.695h13.424c0.873 0 1.583-0.706 1.583-1.574 0 0.043-0.002-1.333 0-24.195 0-0.857-0.713-1.576-1.582-1.576zM5.478 24.408v0.455h-1.628v-0.455c0-0.447 0.364-0.812 0.812-0.812 0.45 0 0.816 0.364 0.816 0.812zM28.090 29.025h-13.424c-0.322 0-0.607-0.162-0.775-0.408-0.101-0.148-0.16-0.327-0.16-0.519v-2.182h15.29v2.183c0 0.506-0.424 0.926-0.931 0.926zM29.021 25.27h-15.291v-3.464c1.749-0.020 7.106-0.403 7.106-2.143-0.002-2.612 0.005-3.671-0.008-3.76l2.916-1.737c0.105-0.063 0.166-0.179 0.157-0.3s-0.085-0.228-0.198-0.275l-9.973-4.162v-2.697h15.291v18.539zM13.406 17.519c-1.801 0-5.27 0.231-6.777 1.21 0.010-2.993-0.104-2.798 0.266-3.052 0.936-0.685 3.613-1.164 6.511-1.164 1.264 0 6.781 0.345 6.781 1.507v2.709c-1.521-0.988-4.972-1.21-6.781-1.21zM13.731 3.903c0-0.512 0.419-0.929 0.934-0.929h13.424c0.515 0 0.932 0.422 0.932 0.928v2.182h-15.29v-2.182zM13.406 9.994l9.455 3.946-2.343 1.394c-1.246-1.228-5.366-1.466-7.112-1.466-1.749 0-5.869 0.239-7.112 1.467l-2.343-1.394 9.455-3.946zM6.629 19.664c0-0.523 2.328-1.498 6.777-1.498 4.452 0 6.781 0.976 6.781 1.498s-2.329 1.499-6.781 1.499c-4.449 0-6.777-0.976-6.777-1.499z"></path>
<path fill="#ff6b09" d="M21.377 26.403c-0.592 0-1.074 0.479-1.074 1.068s0.482 1.069 1.074 1.069c0.592 0 1.074-0.479 1.074-1.069s-0.482-1.068-1.074-1.068zM21.377 27.894c-0.234 0-0.425-0.19-0.425-0.423s0.191-0.422 0.425-0.422c0.234 0 0.425 0.189 0.425 0.422s-0.191 0.423-0.425 0.423z"></path>
<path fill="#ff6b09" d="M22.616 4.207h-2.478v0.646h2.478v-0.646z"></path>
</svg>
<svg id="icon-how-do-female-st-icon" width="32" height="32" viewBox="0 0 32 32" x="144" y="48">
<path fill="#ff6b09" d="M1.801 32c3.652 0 24.779 0 28.427 0 0.141-3.15-0.091-8.376-2.085-10.863l-0.072-0.089-4.355-2.125c0.095-0.31 0.141-0.594 0.16-0.802 0.022-0.25-0.014-0.486-0.106-0.699-0.719-1.671-2.239-2.55-3.075-2.924 0.255-0.499 0.419-1.034 0.498-1.582 0.473-0.13 0.854-0.494 0.979-0.98l0.508-2.007c0.090-0.354 0.034-0.721-0.16-1.033-0.083-0.135-0.191-0.248-0.312-0.345 1.433-3.163-0.967-6.146-1.098-6.303-2.6-2.731-5.884-2.221-6.058-2.19-4.74 0.964-6.569 4.494-5.536 8.633-0.306 0.329-0.434 0.788-0.321 1.238l0.511 2.009c0.124 0.483 0.502 0.846 0.972 0.977 0.145 1.002 0.582 1.909 1.223 2.639v1.591c-6.802 3.384-2.492 1.225-7.943 3.904-0.011 0.050-2.558 2.68-2.179 10.475l0.023 0.476zM29.24 31h-4.679v-1.91l3.094-6.883c1.55 2.5 1.608 7.273 1.584 8.792zM22.854 18.035c-0.181 2.015-1.318 1.406-2.020 2.958-0.552-0.59-0.718-1.297-0.57-2.055 0.268-1.391-0.605-1.804-0.39-3.265l0.033-0.033v-0.005c0.019-0.020 0.191-0.219 0.241-0.282 1.851 0.784 2.742 2.242 2.706 2.681zM12.924 16.452c0.859 0.579 1.897 0.921 3.012 0.921 1.051 0 2.049-0.297 2.904-0.844 0.119 1.149 0.581 1.379 0.417 2.224-0.031 0.157-0.047 0.311-0.057 0.464l-3.186 3.489-4.073-4.462 0.983-0.499v-1.293zM11.643 12.182v-1.934c0-0.712 0-3.538 0-3.399 0.496-0.891 1.172-1.537 2.012-1.925 2.25 1.237 4.84 3.083 6.577 4.941-0.002 2.366 0.007 2.372-0.009 2.567l-0.001 0.012c-0.136 2.148-1.954 3.929-4.285 3.929-2.267 0-4.149-1.729-4.285-3.951-0.007-0.080-0.008-0.159-0.008-0.241zM11.009 18.726l5.005 5.482 3.36-3.68c0.077 0.215 0.185 0.418 0.308 0.614l-3.668 4.457-5.47-6.647 0.465-0.227zM21.257 11.377v-1.545c0.045-0.050 0.427-0.476 0.382-0.426 0.021 0.782 0.108-0.141-0.382 1.97zM15.241 1.039c0.203 0.012 2.935-0.404 5.093 1.861 0.085 0.104 1.842 2.303 1.136 4.71-0.242-1.071-0.663-2.443-1.328-3.098l-0.728 0.704c0.657 0.647 1.089 2.616 1.253 3.637-3.015-3.065-6.903-5.005-6.957-5.037-0.195 0.118-1.841 0.422-3.036 2.679l-0.057 0.108v1.658c-0.051 0.001-0.202 0.002-0.151 0.002-0.759-3.562 0.695-6.392 4.773-7.222zM10.36 9.29l0.259 1.018v1.070l-0.43-1.69c-0.063-0.252 0.129-0.347 0.171-0.398zM9.607 19.41l6.408 7.786 4.335-5.268c0.472 0.41 0.698 0.468 1.698 0.968l-0.337-1.111c-0.086-0.282 0.253-0.735 0.458-0.943 0.457-0.241 0.837-0.584 1.122-1.008l3.537 1.726-3.291 7.322v2.119h-15.045v-2.119l-3.293-7.32 4.408-2.15zM4.372 22.21l3.095 6.881v1.909h-4.679c-0.023-1.519 0.035-6.289 1.584-8.79z"></path>
</svg>
<svg id="icon-how-do-female-stud-iconfr" width="32" height="32" viewBox="0 0 32 32" x="192" y="48">
<path fill="#ff6b09" d="M4.124 29.091c3.054 0 20.724 0 23.775 0 0.118-2.634-0.076-7.005-1.743-9.085l-0.060-0.075-3.643-1.777c0.079-0.259 0.118-0.497 0.134-0.671 0.018-0.209-0.012-0.406-0.089-0.585-0.601-1.397-1.873-2.132-2.572-2.446 0.213-0.417 0.351-0.865 0.417-1.323 0.396-0.108 0.714-0.413 0.819-0.82l0.425-1.678c0.075-0.296 0.028-0.603-0.134-0.864-0.070-0.113-0.16-0.207-0.261-0.288 1.199-2.646-0.809-5.14-0.918-5.272-2.175-2.284-4.921-1.857-5.067-1.832-3.964 0.807-5.494 3.758-4.63 7.221-0.256 0.275-0.363 0.659-0.268 1.035l0.427 1.68c0.104 0.404 0.42 0.708 0.813 0.817 0.121 0.838 0.487 1.596 1.023 2.207v1.331c-5.689 2.831-2.084 1.025-6.643 3.266-0.009 0.042-2.139 2.241-1.823 8.761l0.019 0.398zM27.073 28.255h-3.913v-1.597l2.588-5.756c1.297 2.091 1.345 6.083 1.325 7.353zM21.733 17.412c-0.151 1.685-1.102 1.176-1.689 2.474-0.462-0.493-0.601-1.085-0.477-1.719 0.224-1.163-0.506-1.508-0.326-2.73l0.027-0.028v-0.004c0.016-0.017 0.16-0.184 0.201-0.236 1.548 0.656 2.293 1.875 2.263 2.243zM13.428 16.087c0.719 0.484 1.586 0.771 2.519 0.771 0.879 0 1.713-0.248 2.429-0.706 0.099 0.961 0.486 1.153 0.349 1.86-0.026 0.131-0.040 0.261-0.048 0.388l-2.665 2.918-3.406-3.731 0.822-0.417v-1.082zM12.356 12.516v-1.618c0-0.596 0-2.959 0-2.843 0.415-0.745 0.98-1.286 1.683-1.61 1.882 1.035 4.048 2.579 5.501 4.132-0.001 1.979 0.006 1.984-0.008 2.147l-0.001 0.010c-0.113 1.797-1.634 3.286-3.584 3.286-1.896 0-3.47-1.446-3.584-3.304-0.006-0.067-0.007-0.133-0.007-0.201zM11.826 17.989l4.186 4.585 2.81-3.078c0.064 0.18 0.154 0.349 0.257 0.513l-3.068 3.728-4.575-5.559 0.389-0.189zM20.397 11.843v-1.292c0.038-0.042 0.357-0.398 0.32-0.356 0.018 0.654 0.090-0.118-0.32 1.648zM15.365 3.197c0.17 0.010 2.454-0.338 4.26 1.556 0.071 0.087 1.541 1.926 0.95 3.939-0.202-0.896-0.554-2.043-1.111-2.591l-0.609 0.589c0.55 0.541 0.911 2.188 1.048 3.042-2.521-2.563-5.774-4.186-5.818-4.213-0.163 0.099-1.539 0.353-2.539 2.24l-0.048 0.090v1.386c-0.043 0-0.169 0.002-0.126 0.001-0.635-2.979 0.581-5.346 3.992-6.040zM11.283 10.097l0.216 0.851v0.895l-0.36-1.414c-0.053-0.211 0.108-0.291 0.143-0.333zM10.653 18.561l5.359 6.512 3.626-4.406c0.394 0.343 0.584 0.392 1.42 0.809l-0.282-0.93c-0.072-0.236 0.212-0.615 0.383-0.789 0.382-0.201 0.7-0.488 0.939-0.843l2.958 1.443-2.753 6.123v1.772h-12.583v-1.772l-2.754-6.123 3.687-1.798zM6.275 20.903l2.588 5.755v1.597h-3.913c-0.020-1.27 0.029-5.26 1.325-7.351z"></path>
</svg>
<svg id="icon-how-do-open-book-icon" width="32" height="32" viewBox="0 0 32 32" x="240" y="48">
<path fill="#fff" d="M14.119 7.515h-10.095v0.76h10.095v-0.76z"></path>
<path fill="#fff" d="M14.118 10.351h-8.584v0.76h8.584v-0.76z"></path>
<path fill="#fff" d="M14.119 13.187h-10.095v0.76h10.095v-0.76z"></path>
<path fill="#fff" d="M14.118 16.024h-8.584v0.76h8.584v-0.76z"></path>
<path fill="#fff" d="M14.119 18.86h-10.095v0.76h10.095v-0.76z"></path>
<path fill="#fff" d="M14.118 21.696h-8.584v0.76h8.584v-0.76z"></path>
<path fill="#fff" d="M27.977 7.515h-10.095v0.76h10.095v-0.76z"></path>
<path fill="#fff" d="M26.465 10.351h-8.584v0.76h8.584v-0.76z"></path>
<path fill="#fff" d="M27.977 13.187h-10.095v0.76h10.095v-0.76z"></path>
<path fill="#fff" d="M26.465 16.024h-8.584v0.76h8.584v-0.76z"></path>
<path fill="#fff" d="M27.977 18.86h-10.095v0.76h10.095v-0.76z"></path>
<path fill="#fff" d="M26.465 21.696h-8.584v0.76h8.584v-0.76z"></path>
<path fill="#fff" d="M31.622 6.649h-1.386v-2.095c0-0.21-0.169-0.38-0.378-0.38h-11.298c-1.103 0-2.058 0.6-2.56 1.498-0.502-0.898-1.458-1.498-2.56-1.498h-11.298c-0.209 0-0.378 0.17-0.378 0.38v2.095h-1.386c-0.209 0-0.378 0.17-0.378 0.38v20.417c0 0.21 0.169 0.38 0.378 0.38 3.795 0 27.436 0 31.244 0 0.209 0 0.378-0.17 0.378-0.38v-20.417c0-0.21-0.169-0.38-0.378-0.38zM18.56 4.935h10.92c0 3.406 0 12.378 0 20.371h-11.727c-0.52 0-1.040 0.221-1.376 0.507v-18.687c0-1.214 0.966-2.191 2.182-2.191zM2.52 4.935h10.92c1.182 0 2.138 0.926 2.177 2.107 0.001 0.016 0.002 0.068 0.005 0.084v18.685c-0.335-0.285-0.849-0.505-1.371-0.505h-11.732c0-7.99 0-16.966 0-20.371zM0.756 7.41h1.008v18.277c0 0.21 0.169 0.38 0.378 0.38h12.109c0.576 0 1.133 0.38 1.311 0.999h-14.806v-19.656zM31.244 27.065h-14.806c0.179-0.622 0.731-0.999 1.316-0.999h12.105c0.209 0 0.378-0.17 0.378-0.38v-18.277h1.008v19.656z"></path>
</svg>
<svg id="icon-how-do-open-book-iconfr" width="32" height="32" viewBox="0 0 32 32" x="288" y="48">
<path fill="#fff" d="M14.717 9.194h-8.443v0.636h8.443v-0.636z"></path>
<path fill="#fff" d="M14.717 11.566h-7.179v0.636h7.179v-0.636z"></path>
<path fill="#fff" d="M14.717 13.939h-8.443v0.636h8.443v-0.636z"></path>
<path fill="#fff" d="M14.717 16.311h-7.179v0.636h7.179v-0.636z"></path>
<path fill="#fff" d="M14.717 18.683h-8.443v0.636h8.443v-0.636z"></path>
<path fill="#fff" d="M14.717 21.055h-7.179v0.636h7.179v-0.636z"></path>
<path fill="#fff" d="M26.308 9.194h-8.443v0.636h8.443v-0.636z"></path>
<path fill="#fff" d="M25.043 11.566h-7.179v0.636h7.179v-0.636z"></path>
<path fill="#fff" d="M26.308 13.939h-8.443v0.636h8.443v-0.636z"></path>
<path fill="#fff" d="M25.043 16.311h-7.179v0.636h7.179v-0.636z"></path>
<path fill="#fff" d="M26.308 18.683h-8.443v0.636h8.443v-0.636z"></path>
<path fill="#fff" d="M25.043 21.055h-7.179v0.636h7.179v-0.636z"></path>
<path fill="#fff" d="M29.357 8.47h-1.159v-1.752c0-0.176-0.142-0.318-0.316-0.318h-9.449c-0.922 0-1.721 0.502-2.141 1.253-0.419-0.751-1.219-1.253-2.141-1.253h-9.449c-0.175 0-0.316 0.143-0.316 0.318v1.752h-1.159c-0.175 0-0.316 0.143-0.316 0.318v17.076c0 0.176 0.142 0.318 0.316 0.318 3.174 0 22.946 0 26.131 0 0.174 0 0.316-0.142 0.316-0.318v-17.076c0-0.176-0.142-0.318-0.316-0.318zM18.432 7.036h9.133c0 2.849 0 10.353 0 17.038h-9.808c-0.435 0-0.869 0.185-1.151 0.424v-15.629c0-1.016 0.808-1.832 1.825-1.832zM5.016 7.036h9.133c0.988 0 1.788 0.774 1.821 1.762 0 0.014 0.002 0.057 0.004 0.070v15.628c-0.28-0.238-0.71-0.423-1.147-0.423h-9.812c0-6.683 0-14.19 0-17.038zM3.541 9.106h0.843v15.286c0 0.176 0.142 0.318 0.316 0.318h10.128c0.482 0 0.948 0.318 1.097 0.835h-12.384v-16.439zM29.041 25.546h-12.383c0.15-0.52 0.611-0.835 1.101-0.835h10.124c0.174 0 0.316-0.142 0.316-0.318v-15.286h0.843v16.439z"></path>
</svg>
<svg id="icon-how-do-psyhsupport-icon" width="32" height="32" viewBox="0 0 32 32" x="336" y="48">
<path fill="#ff6b09" d="M1.979 12.558v2.831c0 0.152 0.069 0.295 0.188 0.39 1.921 1.523 4.332 2.362 6.788 2.362 0.735 0 1.471-0.077 2.19-0.224 1.533 0.683 3.165 1.032 4.855 1.032 1.695 0 3.327-0.349 4.855-1.032 3.069 0.624 6.338-0.046 8.977-2.138 0.119-0.094 0.188-0.238 0.188-0.39v-2.831c0-0.416-0.205-0.794-0.571-1.027l-3.839-2.176c0.84-1.073 1.466-2.602 1.574-3.913 0.319-2.256-1.507-4.646-4.136-4.646-1.105 0-2.156 0.458-2.927 1.227-0.027 0.027-0.057 0.049-0.083 0.076-0.024 0.025-0.043 0.054-0.066 0.080-0.015 0.017-0.029 0.036-0.044 0.053-0.751-1.38-2.195-2.232-3.896-2.232-0.165 0-0.328 0.011-0.488 0.028-0.010-0.001-0.018-0.006-0.028-0.006-0.091 0-0.285 0.024-0.388 0.054-0.015 0.004-0.026 0.015-0.041 0.021-1.27 0.259-2.346 1.034-2.991 2.156-0.776-0.911-1.916-1.457-3.156-1.457-3.88 0-5.601 4.612-2.539 8.581l-3.875 2.167c-0.344 0.219-0.549 0.598-0.549 1.014zM20.846 16.828c-0.083 0.041-0.166 0.085-0.25 0.123l-0 0c-0.001 0-0.001 0.001-0.002 0.001-1.442 0.667-2.987 1.006-4.594 1.006-1.602 0-3.148-0.338-4.596-1.007-0.705-0.323-1.387-0.734-2.030-1.221v-2.87c0-0.098 0.047-0.184 0.101-0.221l4.509-2.524c0.561 0.48 1.278 0.832 2.020 0.832 0.715 0 1.488-0.357 2.038-0.843l4.455 2.52c0.082 0.053 0.129 0.139 0.129 0.237v2.87c-0.567 0.429-1.164 0.795-1.781 1.098zM28.945 12.382c0.058 0.037 0.091 0.101 0.091 0.176v2.587c-1.954 1.477-4.306 2.148-6.688 1.98 0.367-0.23 0.766-0.516 1.075-0.76 0.119-0.094 0.188-0.238 0.188-0.39v-3.114c0-0.435-0.217-0.835-0.606-1.087l-2.366-1.339 0.575-0.321c0.698 0.573 1.297 0.744 1.835 0.744 0.658 0 1.35-0.325 1.864-0.759l4.031 2.284zM23.050 1.788c1.371 0 2.574 0.902 3 2.142-0.827-0.099-1.636-0.51-2.221-1.142-0.106-0.114-0.256-0.173-0.413-0.155-0.154 0.016-0.291 0.105-0.37 0.239-0.562 0.948-1.482 1.58-2.529 1.76 0-0.001-0-0.002-0-0.003 0.005-0.216-0.008-0.434-0.032-0.653-0.002-0.022-0.005-0.044-0.007-0.067-0.032-0.248-0.106-0.559-0.121-0.609 0.559-0.902 1.598-1.513 2.694-1.513zM20.409 5.644c1.244-0.137 2.369-0.767 3.142-1.762 0.762 0.629 1.728 1.010 2.682 1.056-0.007 1.792-1.461 4.927-3.183 4.927-1.328 0-2.461-1.912-2.885-3.238 0.108-0.341 0.186-0.669 0.244-0.983zM20.509 9.373l-0.88 0.491-0.888-0.502c0.329-0.413 0.631-0.893 0.89-1.413 0.249 0.526 0.546 1.010 0.878 1.425zM19.182 6.465c-0.475 1.427-1.693 3.49-3.176 3.49-1.73 0-3.203-2.864-3.483-4.696 0.075-0.019 2.412 0.126 4.020-2.001 0.816 0.688 1.918 1.143 2.989 1.188 0.013 0.647-0.143 1.406-0.35 2.018zM16.034 0.992c2.76 0 3.285 2.392 3.328 2.442-1.001-0.102-1.914-0.596-2.545-1.276-0.106-0.114-0.26-0.171-0.413-0.154s-0.291 0.106-0.371 0.241c-0.547 0.932-1.404 1.589-2.397 1.868-0.383 0.108-0.797 0.157-1.158 0.154 0.135-1.822 1.585-3.274 3.555-3.274zM12.372 7.938c0.255 0.515 0.559 1.006 0.906 1.438l-0.869 0.487-0.9-0.51c0.341-0.438 0.631-0.929 0.863-1.415zM8.942 1.788c1.117 0 2.14 0.571 2.71 1.514-0.029 0.1-0.106 0.498-0.116 0.548-0.685-0.165-1.314-0.533-1.808-1.062-0.106-0.114-0.256-0.17-0.413-0.154-0.154 0.017-0.291 0.106-0.37 0.24-0.659 1.119-1.867 1.815-3.154 1.815 0.157-1.627 1.507-2.9 3.151-2.9zM5.834 5.678c1.415-0.014 2.75-0.686 3.616-1.796 0.592 0.491 1.294 0.813 2.041 0.961 0.029 0.575 0.178 1.273 0.348 1.789-0.272 0.84-0.793 1.841-1.44 2.505-0.004 0.004-0.010 0.006-0.014 0.010-0.405 0.43-0.981 0.719-1.434 0.719-1.583 0-2.82-2.508-3.117-4.188zM2.964 12.558c0-0.075 0.033-0.139 0.067-0.162l4.086-2.284c0.245 0.206 0.302 0.229 0.351 0.265l-0 0c0.481 0.322 0.922 0.482 1.523 0.482 0.64 0 1.223-0.273 1.737-0.694 0.029-0.023 0.060-0.045 0.087-0.068l0.583 0.33-2.429 1.361c-0.363 0.236-0.58 0.636-0.58 1.071v3.114c0 0.152 0.069 0.296 0.188 0.39 0.314 0.249 0.722 0.539 1.075 0.761-2.417 0.166-4.768-0.528-6.689-1.98v-2.587z"></path>
<path fill="#ff6b09" d="M31.034 20.781c-0.606-0.383-1.351-0.423-1.993-0.11l-6.076 2.956c-0.021-1.145-0.949-2.071-2.092-2.071l-3.484 0.001c-1.718-1.504-3.913-2.425-5.909-2.473-1.968-0.047-3.735-0.060-4.56-0.064v-1.002h-6.922v11.517h6.922v-1.379c1.898 1.097 6.889 3.845 9.258 3.845 0.054 0 0.106-0.001 0.157-0.004 4.165-0.235 13.989-7.198 14.637-7.661 0.634-0.37 1.026-1.056 1.026-1.796 0-0.719-0.361-1.376-0.966-1.758zM5.937 28.542h-4.952v-9.533h4.952v9.533zM30.467 23.484c-0.015 0.008-0.030 0.017-0.044 0.028-0.101 0.073-10.207 7.271-14.142 7.494-0.039 0.002-0.078 0.003-0.12 0.003-2.077 0-7.143-2.753-9.24-4.001v-6.997c0.821 0.004 2.578 0.017 4.536 0.064 1.824 0.044 3.848 0.921 5.416 2.346l0.14 0.128 3.86-0.001c0.612 0 1.111 0.502 1.111 1.119s-0.498 1.119-1.111 1.119h-7.091v0.992h7.091c0.68 0 1.278-0.333 1.662-0.839l6.934-3.373c0.34-0.167 0.72-0.146 1.041 0.057s0.504 0.537 0.504 0.918c0 0.391-0.21 0.753-0.549 0.945z"></path>
<path fill="#ff6b09" d="M16.492 12.159h-0.985v0.92h0.985v-0.92z"></path>
<path fill="#ff6b09" d="M16.492 13.992h-0.985v0.92h0.985v-0.92z"></path>
<path fill="#ff6b09" d="M16.492 15.826h-0.985v0.92h0.985v-0.92z"></path>
</svg>
<svg id="icon-how-do-psyhsupport-iconfr" width="32" height="32" viewBox="0 0 32 32" x="384" y="48">
<path fill="#ff6b09" d="M4.055 13.287v2.471c0 0.133 0.060 0.258 0.164 0.34 1.677 1.329 3.78 2.061 5.924 2.061 0.642 0 1.284-0.068 1.912-0.195 1.338 0.596 2.763 0.901 4.237 0.901 1.479 0 2.904-0.305 4.237-0.901 2.678 0.545 5.532-0.040 7.835-1.866 0.104-0.082 0.164-0.208 0.164-0.34v-2.471c0-0.363-0.179-0.693-0.498-0.896l-3.351-1.899c0.733-0.937 1.279-2.271 1.374-3.415 0.278-1.969-1.315-4.055-3.609-4.055-0.965 0-1.881 0.4-2.554 1.071-0.023 0.023-0.050 0.043-0.072 0.067-0.021 0.022-0.038 0.047-0.058 0.070-0.013 0.015-0.025 0.031-0.038 0.046-0.656-1.204-1.916-1.948-3.4-1.948-0.144 0-0.286 0.010-0.426 0.024-0.009-0.001-0.016-0.005-0.024-0.005-0.080 0-0.248 0.021-0.339 0.047-0.013 0.004-0.023 0.013-0.036 0.018-1.109 0.226-2.048 0.902-2.611 1.882-0.677-0.795-1.672-1.272-2.754-1.272-3.386 0-4.888 4.025-2.216 7.489l-3.382 1.891c-0.3 0.191-0.479 0.522-0.479 0.885zM20.52 17.013c-0.073 0.036-0.145 0.074-0.218 0.107l-0 0c-0.001 0-0.001 0.001-0.002 0.001-1.258 0.582-2.607 0.878-4.009 0.878-1.398 0-2.747-0.295-4.011-0.879-0.615-0.282-1.21-0.64-1.772-1.065v-2.505c0-0.085 0.041-0.161 0.089-0.193l3.935-2.203c0.49 0.419 1.115 0.726 1.763 0.726 0.624 0 1.299-0.312 1.778-0.736l3.888 2.199c0.072 0.046 0.113 0.122 0.113 0.207v2.504c-0.495 0.375-1.016 0.694-1.554 0.958zM27.588 13.133c0.051 0.032 0.080 0.088 0.080 0.154v2.258c-1.706 1.289-3.758 1.874-5.837 1.728 0.32-0.201 0.668-0.451 0.938-0.663 0.104-0.082 0.164-0.207 0.164-0.341v-2.718c0-0.38-0.189-0.729-0.529-0.948l-2.065-1.169 0.502-0.28c0.609 0.5 1.132 0.649 1.602 0.649 0.574 0 1.178-0.284 1.627-0.662l3.518 1.993zM22.444 3.888c1.196 0 2.247 0.787 2.618 1.87-0.722-0.086-1.427-0.445-1.938-0.997-0.092-0.1-0.224-0.151-0.36-0.135-0.134 0.014-0.254 0.092-0.323 0.208-0.49 0.827-1.294 1.379-2.207 1.536 0-0.001-0-0.002-0-0.003 0.004-0.188-0.007-0.379-0.028-0.57-0.002-0.020-0.004-0.039-0.006-0.058-0.028-0.217-0.093-0.488-0.105-0.531 0.488-0.787 1.394-1.32 2.351-1.32zM20.139 7.253c1.086-0.12 2.067-0.669 2.742-1.538 0.665 0.549 1.508 0.882 2.341 0.922-0.006 1.564-1.275 4.3-2.778 4.3-1.159 0-2.148-1.669-2.517-2.826 0.094-0.298 0.162-0.584 0.213-0.858zM20.226 10.507l-0.768 0.428-0.775-0.439c0.287-0.361 0.551-0.779 0.777-1.233 0.217 0.459 0.477 0.882 0.766 1.244zM19.068 7.969c-0.414 1.245-1.477 3.046-2.772 3.046-1.51 0-2.795-2.5-3.040-4.098 0.065-0.016 2.105 0.11 3.509-1.746 0.712 0.6 1.674 0.998 2.609 1.037 0.011 0.564-0.125 1.227-0.305 1.761zM16.321 3.193c2.408 0 2.867 2.088 2.905 2.131-0.873-0.089-1.67-0.52-2.221-1.113-0.092-0.1-0.227-0.15-0.36-0.135s-0.254 0.093-0.323 0.21c-0.477 0.813-1.225 1.386-2.092 1.63-0.334 0.094-0.696 0.137-1.011 0.134 0.118-1.59 1.383-2.857 3.102-2.857zM13.125 9.255c0.223 0.449 0.488 0.878 0.791 1.255l-0.759 0.425-0.786-0.445c0.298-0.383 0.551-0.811 0.753-1.235zM10.131 3.888c0.974 0 1.867 0.498 2.365 1.321-0.025 0.087-0.092 0.435-0.101 0.478-0.598-0.144-1.147-0.465-1.578-0.927-0.093-0.099-0.224-0.149-0.36-0.134-0.134 0.015-0.254 0.093-0.323 0.21-0.575 0.977-1.63 1.584-2.753 1.584 0.137-1.42 1.315-2.531 2.75-2.531zM7.419 7.282c1.235-0.012 2.4-0.598 3.156-1.567 0.516 0.428 1.129 0.71 1.781 0.839 0.025 0.502 0.155 1.111 0.303 1.561-0.237 0.733-0.692 1.606-1.257 2.187-0.004 0.004-0.008 0.005-0.012 0.009-0.353 0.375-0.856 0.627-1.251 0.627-1.381 0-2.461-2.189-2.721-3.655zM4.914 13.287c0-0.066 0.029-0.121 0.058-0.141l3.566-1.993c0.214 0.179 0.263 0.2 0.306 0.232l-0 0c0.42 0.281 0.804 0.421 1.329 0.421 0.559 0 1.068-0.239 1.516-0.606 0.025-0.020 0.052-0.039 0.076-0.059l0.509 0.288-2.12 1.188c-0.317 0.206-0.506 0.555-0.506 0.935v2.718c0 0.133 0.060 0.258 0.164 0.34 0.274 0.217 0.63 0.47 0.938 0.664-2.109 0.145-4.161-0.461-5.838-1.728v-2.258z"></path>
<path fill="#ff6b09" d="M29.412 20.463c-0.529-0.335-1.179-0.369-1.739-0.096l-5.302 2.58c-0.018-1-0.828-1.808-1.825-1.808l-3.040 0.001c-1.499-1.313-3.415-2.116-5.157-2.159-1.718-0.041-3.26-0.053-3.979-0.056v-0.874h-6.041v10.051h6.041v-1.204c1.657 0.957 6.012 3.356 8.079 3.356 0.047 0 0.093-0.001 0.137-0.004 3.635-0.205 12.209-6.282 12.775-6.686 0.553-0.323 0.896-0.922 0.896-1.567 0-0.628-0.315-1.201-0.843-1.535zM7.509 27.237h-4.322v-8.32h4.322v8.32zM28.916 22.823c-0.013 0.007-0.026 0.015-0.038 0.024-0.089 0.063-8.908 6.346-12.342 6.54-0.034 0.002-0.068 0.003-0.105 0.003-1.813 0-6.233-2.402-8.064-3.492v-6.106c0.716 0.003 2.25 0.015 3.959 0.056 1.591 0.038 3.358 0.804 4.727 2.047l0.123 0.112 3.368-0.001c0.535 0 0.97 0.438 0.97 0.976s-0.435 0.977-0.969 0.977h-6.188v0.866h6.188c0.593 0 1.116-0.29 1.45-0.733l6.051-2.944c0.297-0.146 0.628-0.127 0.909 0.050s0.44 0.469 0.44 0.801c0 0.341-0.183 0.657-0.479 0.825z"></path>
<path fill="#ff6b09" d="M16.721 12.938h-0.859v0.803h0.859v-0.803z"></path>
<path fill="#ff6b09" d="M16.721 14.539h-0.859v0.803h0.859v-0.803z"></path>
<path fill="#ff6b09" d="M16.721 16.139h-0.859v0.802h0.859v-0.802z"></path>
</svg>
<svg id="icon-teacher-V-icon" width="32" height="32" viewBox="0 0 32 32" x="432" y="48">
<path fill="#ff6b09" d="M28.237 4.411c-1.216 0.531-2.382 1.18-3.495 1.903-2.238 1.437-4.284 3.149-6.203 4.975-1.918 1.83-3.704 3.788-5.393 5.824-0.422 0.509-2.313 2.776-2.313 2.776l-7.864-11.504-2.969 8.033 10.635 12.381c1.033-2.041 2.027-4.056 3.001-5.806 0.242-0.445 0.496-0.864 0.738-1.29 0 0 1.248-2.142 1.576-2.681 1.312-2.158 2.731-4.26 4.293-6.256 1.564-1.993 3.264-3.896 5.191-5.569 0.959-0.842 1.98-1.62 3.073-2.298 1.092-0.679 2.251-1.273 3.492-1.7-1.291 0.248-2.55 0.678-3.763 1.211z"></path>
</svg>
<svg id="icon-we-guarantee-campfire-icon" width="32" height="32" viewBox="0 0 32 32" x="480" y="48">
<path fill="#ff6b09" d="M26.176 16.593c-0.284-0.635-0.675-1.261-1.247-1.983-1.442-1.813-1.882-5.857-1.887-5.896-0.020-0.194-0.156-0.354-0.337-0.412-0.186-0.058-0.386-0.005-0.518 0.141-1.721 1.925-0.997 4.897-0.606 6.085 0.108 0.325 0.225 0.708 0.308 1.096 0.636 3.137-0.592 4.558-0.88 4.844-0.279 0.078-0.469 0.039-0.645-0.15-0.606-0.664-0.807-2.841-0.523-5.678 0.059-0.577 0.044-1.096-0.039-1.581-0.598-3.486-2.791-5.722-3.349-6.507-1.535-2.269-1.692-6.046-1.696-6.080-0.005-0.179-0.108-0.339-0.269-0.417-0.156-0.078-0.347-0.068-0.494 0.034-2.562 1.741-2.342 5.935-1.985 8.276 0.083 0.543 0.244 1.096 0.523 1.794 0.992 2.497-0.196 5.721-0.205 5.75s-0.020 0.053-0.024 0.082c-0.152 0.795-0.406 1.27-0.689 1.27-0.029 0-0.059-0.005-0.093-0.015-0.347-0.073-0.528-0.441-0.533-0.761-0.020-4.136-4.17-5.527-4.214-5.542-0.186-0.058-0.391-0.005-0.518 0.145-0.132 0.15-0.156 0.359-0.068 0.533 0.049 0.102 0.205 0.548 0.098 2.124-0.093 1.416-0.352 2.817-0.768 4.16-0.988 3.219-0.831 6.269-0.821 6.415 0.759 8.257 12.635 9.704 19.683 5.052 0.772-0.509 1.403-1.091 1.868-1.731 2.601-3.588 1.071-8.461-0.068-11.050zM8.111 24.481c0.015 0.267-0.191 0.494-0.46 0.509h-0.029c-0.259 0-0.474-0.199-0.489-0.456-0.044-0.708-0.034-1.45 0.020-2.255 0.020-0.267 0.254-0.465 0.523-0.451 0.269 0.019 0.474 0.252 0.455 0.519-0.054 0.766-0.064 1.464-0.020 2.133zM8.351 20.186c-0.029 0.247-0.24 0.427-0.484 0.427-0.020 0-0.039 0-0.064-0.005-0.264-0.034-0.455-0.272-0.425-0.538l0.235-1.871c0.034-0.262 0.274-0.451 0.548-0.422 0.269 0.034 0.46 0.276 0.425 0.543l-0.235 1.867z"></path>
<path fill="#ff6b09" d="M22.868 6.633c-0.267-0.041-0.45-0.288-0.408-0.553 0.030-0.197 0.207-1.205 0.686-1.713 0.185-0.196 0.493-0.206 0.691-0.022s0.207 0.49 0.022 0.685c-0.203 0.215-0.376 0.829-0.433 1.197-0.041 0.262-0.287 0.445-0.558 0.405z"></path>
<path fill="#ff6b09" d="M5.045 9.048c-0.094-0.361-0.326-0.955-0.549-1.149-0.203-0.177-0.223-0.483-0.045-0.684s0.486-0.222 0.69-0.045c0.527 0.458 0.802 1.445 0.852 1.638 0.067 0.259-0.091 0.523-0.352 0.59-0.267 0.067-0.529-0.094-0.595-0.349z"></path>
</svg>
</svg>
